# xmcd
#
# Track frame offsets:
#	150
#	14483
#	27074
#	36753
#	53975
#	73844
#	95628
#	104008
#	119082
#	135049
#	149070
#	164891
#
# Disc length: 2415 seconds
#
# Revision: 1
# Processed by: cddbd v1.4PL0 Copyright (c) Steve Scherf et al.
# Submitted via: EasyCDDAExtractor 6.2.0.3
#
DISCID=b7096d0c
DTITLE=Roger Hubbard  - Danger! Deep Mud
DYEAR=2003
DGENRE=Blues
TTITLE0=Love Changing Blues
TTITLE1=Poor Man's Son
TTITLE2=Preaching Blues 
TTITLE3=Pencil Won't Write No More
TTITLE4=Love Minus Zero/No Limit
TTITLE5=Cypress Grove
TTITLE6=Counting Moons
TTITLE7=Travelling Riverside Blues
TTITLE8=Homelovin' Man
TTITLE9=Roll Um Easy 
TTITLE10=Old Bumble Bee Blues
TTITLE11=In My Time of Dying
EXTD=
EXTT0=
EXTT1=
EXTT2=
EXTT3=
EXTT4=
EXTT5=
EXTT6=
EXTT7=
EXTT8=
EXTT9=
EXTT10=
EXTT11=
PLAYORDER=
